HIERARCHY
ROOT root
{
	OFFSET 0.000000 0.000000 0.000000
	CHANNELS 6 Xposition Yposition Zposition Zrotation Yrotation Xrotation
	JOINT lhip
	{
		OFFSET 0.058581 -0.082280 -0.017664
		CHANNELS 3 Zrotation Yrotation Xrotation
		JOINT lknee
		{
			OFFSET 0.043451 -0.386469 0.008037
			CHANNELS 3 Zrotation Yrotation Xrotation
			JOINT lankle
			{
				OFFSET -0.014790 -0.426874 -0.037428
				CHANNELS 3 Zrotation Yrotation Xrotation
				JOINT ltoe
				{
					OFFSET 0.041054 -0.060286 0.122042
					CHANNELS 3 Zrotation Yrotation Xrotation
					End Site
					{
						OFFSET 0.000000 0.000000 0.000000
					}
				}
			}
		}
	}
	JOINT rhip
	{
		OFFSET -0.060310 -0.090513 -0.013543
		CHANNELS 3 Zrotation Yrotation Xrotation
		JOINT rknee
		{
			OFFSET -0.043257 -0.383688 -0.004843
			CHANNELS 3 Zrotation Yrotation Xrotation
			JOINT rankle
			{
				OFFSET 0.019056 -0.420046 -0.034562
				CHANNELS 3 Zrotation Yrotation Xrotation
				JOINT rtoe
				{
					OFFSET -0.034840 -0.062106 0.130323
					CHANNELS 3 Zrotation Yrotation Xrotation
					End Site
					{
						OFFSET 0.000000 0.000000 0.000000
					}
				}
			}
		}
	}
	JOINT lowerback
	{
		OFFSET 0.004439 0.124404 -0.038385
		CHANNELS 3 Zrotation Yrotation Xrotation
		JOINT upperback
		{
			OFFSET 0.004488 0.137956 0.026820
			CHANNELS 3 Zrotation Yrotation Xrotation
			JOINT chest
			{
				OFFSET -0.002265 0.056032 0.002855
				CHANNELS 3 Zrotation Yrotation Xrotation
				JOINT lowerneck
				{
					OFFSET -0.013390 0.211636 -0.033468
					CHANNELS 3 Zrotation Yrotation Xrotation
					JOINT upperneck
					{
						OFFSET 0.010113 0.088937 0.050410
						CHANNELS 3 Zrotation Yrotation Xrotation
						End Site
						{
							OFFSET 0.000000 0.000000 0.000000
						}
					}
				}
				JOINT lclavicle
				{
					OFFSET 0.071702 0.114000 -0.018898
					CHANNELS 3 Zrotation Yrotation Xrotation
					JOINT lshoulder
					{
						OFFSET 0.122921 0.045205 -0.019046
						CHANNELS 3 Zrotation Yrotation Xrotation
						JOINT lelbow
						{
							OFFSET 0.255332 -0.015649 -0.022946
							CHANNELS 3 Zrotation Yrotation Xrotation
							JOINT lwrist
							{
								OFFSET 0.265709 0.012698 -0.007375
								CHANNELS 3 Zrotation Yrotation Xrotation
								End Site
								{
									OFFSET 0.000000 0.000000 0.000000
								}
							}
						}
					}
				}
				JOINT rclavicle
				{
					OFFSET -0.082954 0.112472 -0.023707
					CHANNELS 3 Zrotation Yrotation Xrotation
					JOINT rshoulder
					{
						OFFSET -0.113228 0.046853 -0.008472
						CHANNELS 3 Zrotation Yrotation Xrotation
						JOINT relbow
						{
							OFFSET -0.260127 -0.014369 -0.031269
							CHANNELS 3 Zrotation Yrotation Xrotation
							JOINT rwrist
							{
								OFFSET -0.269108 0.006794 -0.006027
								CHANNELS 3 Zrotation Yrotation Xrotation
								End Site
								{
									OFFSET 0.000000 0.000000 0.000000
								}
							}
						}
					}
				}
			}
		}
	}
}
MOTION
Frames: 17
Frame Time: 0.033333
2.228983 0.663212 1.001256 -89.286620 -1.272477 86.128863 -0.121564 0.476817 4.535243 0.278012 -12.698560 -1.639561 -1.146449 8.937242 -6.643301 0.000000 -0.000000 0.000000 1.202050 -6.858442 3.359067 -3.571254 -5.509159 3.706062 0.731833 -14.816891 -10.788634 0.000000 -0.000000 0.000000 -1.421438 1.874133 7.232349 -0.261205 -2.693842 0.838730 -0.124023 0.255799 -2.344449 -2.030044 -1.248919 -10.668455 3.565783 1.409923 -6.426306 -24.407976 -1.137495 3.303172 -54.205253 4.003958 13.974326 -1.130311 -13.845017 12.605155 -13.826596 -4.062294 4.757767 20.586397 6.668242 4.505045 52.041167 -5.926711 14.841188 -3.291343 21.273071 9.928988 7.877249 5.132652 3.752529 
2.229990 0.662628 1.000765 -89.698159 -1.195762 86.017191 0.095495 0.770164 4.489381 -0.087043 -12.513179 -1.428613 -0.913162 8.941808 -6.625891 0.000000 -0.000000 0.000000 1.092791 -6.928118 3.521006 -3.359335 -5.362788 3.316359 0.801233 -14.688436 -10.619612 0.000000 -0.000000 0.000000 -1.190696 1.985758 7.376196 -0.413121 -2.522369 0.998642 -0.292966 0.232293 -2.417311 -1.892271 -1.627824 -11.210377 3.900879 0.955711 -6.166496 -25.351332 -0.387775 3.113164 -54.027743 3.952046 13.385337 0.112732 -12.443619 10.798427 -12.150617 -5.000087 4.880152 21.570371 5.806162 4.536022 52.992938 -6.510182 14.307046 -3.788974 19.962878 8.609393 8.059986 4.896826 3.041189 
2.231426 0.661500 1.000180 -89.891678 -1.098910 85.972274 0.192625 0.695061 4.499227 -0.186033 -12.510879 -1.564769 -0.527318 8.972015 -6.449645 0.000000 -0.000000 0.000000 1.060456 -6.295590 3.538231 -3.105457 -4.013236 3.612006 0.807415 -14.248805 -8.895595 0.000000 -0.000000 0.000000 -1.033146 2.051727 7.536518 -0.383869 -2.474866 1.276673 -0.443581 0.189988 -2.645947 -1.885184 -2.032780 -11.658458 3.902079 0.833573 -6.652220 -26.353958 0.056057 2.724244 -53.997359 3.460659 12.866087 1.881725 -10.489206 8.556869 -12.327326 -5.036116 5.646079 22.961601 5.104156 4.446129 53.997253 -6.766416 13.806335 -5.843457 17.972666 6.608182 8.010089 4.851133 4.000593 
2.233854 0.659941 0.999431 -89.999992 -1.141384 85.805175 -0.015463 0.814102 4.766192 0.042627 -12.735794 -2.028318 -0.162200 8.957254 -6.409786 0.000000 -0.000000 0.000000 0.838872 -6.367367 3.497433 -2.885310 -3.889042 3.694629 0.712220 -14.313952 -9.137121 0.000000 -0.000000 0.000000 -1.013698 1.892024 8.044764 -0.525233 -2.392744 0.604756 -0.558523 0.224915 -2.254065 -1.476288 -2.368442 -12.388569 3.961488 0.600590 -6.402665 -27.163664 0.067954 2.249094 -53.709123 1.965438 12.477687 3.365232 -8.447477 6.489588 -12.322946 -4.450533 5.101419 24.426986 4.589279 3.848882 55.582523 -5.722007 12.942936 -8.150559 14.634359 3.102054 8.237675 3.552681 2.845660 
2.236163 0.659137 0.999161 -90.235576 -1.121035 85.821681 -0.062202 0.875821 4.631843 0.091053 -12.639516 -2.124116 -0.193714 8.854358 -6.238806 0.000000 -0.000000 0.000000 0.814667 -6.188472 3.149583 -2.878852 -3.986180 3.997347 0.730589 -14.197473 -9.234340 0.000000 -0.000000 0.000000 -1.097897 1.970229 8.132126 -0.456980 -2.321170 0.641085 -0.532258 0.189676 -2.399695 -1.408678 -2.159335 -12.629096 4.134099 0.375534 -6.118654 -27.286295 -0.708243 1.971853 -53.556222 0.626810 12.556571 4.210629 -7.308209 5.264200 -11.674385 -4.770049 5.413818 25.024922 5.192568 3.667590 56.155864 -4.686424 12.721780 -9.044057 12.542273 1.332323 8.025372 2.927563 2.594009 
2.239391 0.657862 0.999523 -90.117459 -1.065974 85.950866 -0.096873 0.763645 4.201446 0.091222 -12.706211 -2.053375 -0.124590 8.784213 -6.163702 0.000000 -0.000000 0.000000 0.829996 -6.087957 2.703566 -2.746290 -3.917949 4.164744 0.542901 -14.502717 -9.127536 0.000000 -0.000000 0.000000 -1.174617 1.854548 8.260582 -0.330491 -2.635418 0.488721 -0.495790 0.312529 -2.734058 -1.422271 -2.235069 -12.960851 4.248972 0.162259 -4.985998 -27.506323 -2.402831 1.717814 -52.423659 -1.241853 12.937633 4.912276 -5.168443 4.861319 -14.264624 -4.068699 6.244000 25.833912 6.758013 3.746213 55.228870 -3.187593 13.402426 -9.140643 10.960685 1.404976 9.763900 2.148513 3.386096 
2.241968 0.656955 0.999223 -90.422673 -0.922535 85.991663 0.099654 0.954780 4.121547 -0.024578 -12.335324 -2.341343 -0.093966 8.607015 -6.150088 0.000000 -0.000000 0.000000 0.984750 -5.867408 2.567484 -2.595329 -3.572428 3.863314 0.452375 -14.303992 -9.012645 0.000000 -0.000000 0.000000 -1.070881 1.856409 8.029176 -0.248110 -2.775909 0.941337 -0.405059 0.267521 -3.232966 -1.577742 -1.961298 -13.032305 4.219490 -0.321802 -3.816630 -27.644427 -4.788112 2.020827 -50.367366 -3.000631 12.859832 5.521002 -5.009086 4.444797 -14.638742 -3.632747 6.751446 26.334754 9.170157 4.116672 53.161552 -1.131722 13.826753 -9.060084 10.388740 1.815727 10.737267 1.749910 4.146375 
2.245200 0.655972 0.999714 -90.300005 -0.941743 86.159901 -0.153379 0.804687 3.632586 0.211629 -12.346563 -2.187245 -0.145995 8.487826 -6.400169 0.000000 -0.000000 0.000000 0.975231 -5.840176 2.135823 -2.572800 -3.458099 3.993826 0.284959 -13.975263 -8.915363 0.000000 -0.000000 0.000000 -1.173499 1.822723 7.788036 -0.031035 -3.372914 1.601541 -0.551152 0.395674 -4.167025 -1.638763 -1.937051 -12.567328 4.232242 -0.619109 -3.229360 -26.981950 -7.191437 1.396010 -47.575665 -5.017729 13.241269 5.523471 -4.732702 3.617771 -14.290958 -3.663602 8.304628 26.539228 11.340870 3.958323 50.458539 1.521875 13.745240 -8.947333 9.877969 1.078506 10.710428 1.855036 6.081309 
2.251276 0.656903 0.999217 -90.824993 -1.202480 86.355550 -0.371784 1.065883 2.978789 0.037289 -11.936916 -2.030029 -0.274093 8.480788 -6.338758 0.000000 -0.000000 0.000000 0.996981 -5.240513 1.190597 -2.896039 -3.431019 4.500351 0.071153 -14.073261 -9.225070 0.000000 -0.000000 0.000000 -1.632927 1.678715 8.322564 -0.061039 -3.228294 1.359234 -0.452546 0.540412 -4.686118 -1.546961 -1.408807 -13.148925 4.291074 -0.910065 -1.721446 -25.755657 -10.060010 0.706391 -44.375734 -7.323374 13.611020 5.745713 -4.825890 3.435168 -12.801518 -3.970823 10.005784 26.784643 13.970394 3.809431 46.923177 4.761579 13.342490 -9.558558 9.761095 0.005618 10.304828 1.998578 7.743246 
2.254765 0.656785 0.999936 -90.503943 -1.139962 86.798217 -0.353659 0.891727 2.157397 0.125653 -11.656417 -1.983501 -0.511494 8.069363 -6.560912 0.000000 -0.000000 0.000000 0.896151 -5.655740 0.673094 -2.708583 -3.429333 4.236033 0.266292 -13.719550 -8.893731 0.000000 -0.000000 0.000000 -2.147747 2.195437 7.005725 0.642652 -4.299566 2.932902 -0.254582 0.606568 -5.867094 -1.771677 -0.919339 -12.400759 4.158198 -1.711486 -0.458556 -22.935431 -13.736497 -0.837702 -40.105399 -10.380708 13.756662 5.788453 -5.388841 2.649421 -11.616789 -4.267759 12.637464 25.954546 17.427380 3.486729 41.051260 8.834676 12.183546 -9.566993 10.096880 -0.445335 10.562419 2.331855 11.920446 
2.258652 0.657269 0.999380 -89.997154 -1.079550 87.513988 -0.333220 1.424209 0.681404 -0.010723 -15.766480 -1.502905 -1.181717 11.745759 -6.996908 0.000000 -0.000000 0.000000 1.121372 -6.018953 0.018705 -2.339317 0.483489 3.141111 0.346965 -18.166164 -7.444657 0.000000 -0.000000 0.000000 -2.454502 1.761552 5.008412 0.336277 -4.768388 3.775073 0.388866 1.140192 -5.135558 -1.818463 -2.609961 -11.787428 3.819236 -0.554852 0.243827 -21.590563 -17.980319 0.321411 -33.251759 -14.281353 10.350129 5.657068 -5.781177 3.067833 -14.550006 -4.348766 12.630795 24.637449 21.233240 4.909591 33.604235 12.948580 5.560808 -5.910062 11.685936 2.331411 8.099817 -1.129711 14.336802 
2.261257 0.658461 0.999943 -89.911551 -0.932785 87.560078 -0.121822 1.539409 0.358005 -0.040599 -16.071494 -1.411408 -1.674296 12.103579 -6.872277 0.000000 -0.000000 0.000000 1.198962 -6.206756 -0.079977 -2.295628 0.806534 2.932106 0.833579 -18.629873 -7.506523 0.000000 -0.000000 0.000000 -2.518255 1.843920 4.929754 0.357742 -5.113170 3.625014 0.751993 1.349338 -5.489768 -2.350067 -2.602887 -11.126433 4.518916 -0.738939 1.817622 -19.131504 -21.302705 -0.635130 -27.524958 -17.082075 8.289569 4.039353 -5.613242 3.978590 -12.747742 -5.841608 13.778674 22.240548 24.537895 4.471256 28.018819 15.656126 3.276954 -4.290411 12.107453 3.247756 6.933074 0.187966 16.615135 
2.263668 0.659354 1.001372 -89.850876 -0.858577 87.644629 -0.048558 1.583826 0.016570 -0.066815 -16.133222 -1.197743 -1.932880 12.603909 -7.562014 0.000000 -0.000000 0.000000 1.198716 -6.415281 -0.263916 -2.228383 1.249824 2.784749 1.377716 -18.930085 -7.315405 0.000000 -0.000000 0.000000 -2.656270 2.077124 4.487928 0.378544 -5.705519 4.086642 1.085804 1.419720 -6.088563 -2.628836 -2.674738 -10.164142 5.069902 -0.833595 3.077849 -16.415768 -24.618827 -1.487959 -21.514241 -19.009097 5.521572 2.540544 -5.925681 4.718337 -13.047167 -6.178582 14.694449 19.469310 27.844978 3.853786 22.558988 18.243526 0.756338 -2.641654 12.587797 5.175076 6.737447 0.900414 18.809545 
2.264566 0.660140 1.002379 -89.811960 -0.755455 87.660577 0.034288 1.797796 -0.084427 -0.012480 -16.292224 -1.238103 -2.219026 13.220396 -7.611806 0.000000 -0.000000 0.000000 1.280522 -6.601499 -0.124427 -2.198052 1.702075 2.238343 1.535035 -19.544040 -6.972638 0.000000 -0.000000 0.000000 -2.658958 2.082578 4.273553 0.366919 -6.062356 3.952171 1.335507 1.584227 -6.383818 -2.989328 -3.116415 -9.148051 5.725602 -0.620418 4.054107 -13.462726 -27.442730 -2.490017 -15.944209 -20.918079 3.169219 0.264356 -6.436330 6.280943 -11.452790 -6.619343 15.688574 16.246503 30.648826 2.999077 17.287081 20.421893 -1.232132 -0.066363 13.560106 8.118945 5.450104 2.008376 20.058288 
2.264291 0.660579 1.003141 -89.717506 -0.612978 87.773960 0.122194 2.001496 -0.280289 0.044362 -15.909507 -0.980571 -2.115109 13.911073 -8.107925 0.000000 -0.000000 0.000000 1.366843 -6.806877 -0.048644 -2.189623 2.056925 1.750323 2.073523 -19.983329 -6.940306 0.000000 -0.000000 0.000000 -2.734931 2.153405 4.028440 0.475782 -6.485393 3.498777 1.621271 1.720522 -6.499354 -2.866169 -3.156892 -8.748382 6.310927 -0.866145 5.713332 -10.324886 -29.841160 -4.278907 -11.696192 -23.017728 0.870353 -1.505601 -6.461637 7.702864 -13.346038 -6.042351 16.905748 12.924259 33.197168 1.594642 12.591222 22.477378 -3.100335 2.357793 13.744793 11.504639 5.933329 2.056656 23.656414 
2.263212 0.660731 1.004164 -89.878579 -0.477851 87.680385 0.205234 2.746500 0.066509 0.362311 -14.952893 -1.337149 -1.992687 15.166462 -8.010834 0.000000 -0.000000 0.000000 1.434745 -7.023340 0.210007 -2.228343 2.401553 1.550888 2.512206 -20.265054 -6.607660 0.000000 -0.000000 0.000000 -2.671399 2.141372 3.592717 0.450690 -6.624868 3.579567 1.918392 1.821946 -6.731142 -2.872432 -3.505125 -7.742085 6.528441 -0.427963 6.413326 -7.663671 -31.993553 -5.165999 -7.928961 -24.365838 -1.460794 -2.726244 -7.446096 8.003019 -11.738184 -5.655403 16.618714 9.207956 35.400590 0.467155 8.718776 24.618642 -4.722690 4.277884 13.758645 14.516730 6.414328 1.545105 22.819939 
2.261841 0.660228 1.004740 -89.969178 -0.426061 87.859110 0.183516 3.005367 0.141670 0.550475 -14.487415 -1.749650 -2.004999 15.384682 -7.570572 0.000000 -0.000000 0.000000 1.419209 -7.162227 0.118551 -2.300150 2.606414 1.540391 2.633852 -20.283305 -6.554415 0.000000 -0.000000 0.000000 -2.408857 2.131031 3.328498 0.287682 -6.753906 3.032508 2.054691 1.843702 -7.140203 -2.489722 -3.722284 -6.902507 6.787104 -0.133195 7.566779 -5.657770 -33.675416 -6.307922 -5.883835 -26.171550 -3.259271 -2.442740 -7.446604 7.733355 -12.627795 -5.457760 16.386888 6.003800 37.014796 -0.538707 5.987299 26.288359 -6.298726 4.820929 14.275076 15.712485 7.273450 1.220642 23.075701 
